# AST/ASF file generated using VICON BodyLanguage
# -----------------------------------------------
:version 1.10
:name VICON
:units
  mass 1.0
  length 0.45
  angle deg
:documentation
   .ast/.asf automatically generated from VICON data using
   VICON BodyBuilder and BodyLanguage model FoxedUp or BRILLIANT.MOD
:root
   order TX TY TZ RX RY RZ
   axis XYZ
   position 0 0 0  
   orientation 0 0 0 
:bonedata
  begin
     id 1 
     name lhipjoint
     direction 0.62366 -0.717238 0.310833 
     length 2.53602 
     axis 0 0 0  XYZ
  end
  begin
     id 2 
     name lfemur
     direction 0.34202 -0.939693 0  
     length 7.40817  
     axis 0 0 20  XYZ
    dof rx ry rz
    limits (-160.0 20.0)
           (-70.0 70.0)
           (-60.0 70.0)
  end
  begin
     id 3 
     name ltibia
     direction 0.34202 -0.939693 0   
     length 7.7045   
     axis 0 0 20   XYZ
    dof rx
    limits (-10.0 170.0)
  end
  begin
     id 4 
     name lfoot
     direction 0.0673888 -0.185149 0.980397   
     length 2.09456   
     axis -90 7.62852e-016 20   XYZ
    dof rx rz
    limits (-45.0 90.0)
           (-70.0 20.0)
  end
  begin
     id 5 
     name ltoes
     direction 1.53575e-011 -4.21994e-011 1   
     length 1.05543   
     axis -90 7.62852e-016 20   XYZ
    dof rx
    limits (-90.0 20.0)
  end
  begin
     id 6 
     name rhipjoint
     direction -0.489018 -0.800347 0.346851   
     length 2.27268  
     axis 0 0 0  XYZ 
  end
  begin
     id 7 
     name rfemur
     direction -0.34202 -0.939693 0   
     length 7.55487   
     axis 0 0 -20   XYZ
    dof rx ry rz
    limits (-160.0 20.0)
           (-70.0 70.0)
           (-70.0 60.0)
  end
  begin
     id 8 
     name rtibia
     direction -0.34202 -0.939693 0   
     length 7.78969   
     axis 0 0 -20   XYZ
    dof rx
    limits (-10.0 170.0)
 end
 begin
     id 9 
     name rfoot
     direction -0.0859318 -0.236096 0.967923   
     length 2.19143  
     axis -90 -7.62852e-016 -20   XYZ
    dof rx rz
    limits (-45.0 90.0)
           (-20.0 70.0)
  end
  begin
     id 10 
     name rtoes
     direction -1.53538e-011 -4.21989e-011 1   
     length 1.09845   
     axis -90 -7.62852e-016 -20   XYZ
    dof rx
    limits (-90.0 20.0)
  end
  begin
     id 11 
     name lowerback
     direction -0.00762546 0.998978 -0.0445553   
     length 1.98161   
     axis 0 0 0   XYZ
    dof rx ry rz
    limits (-20.0 45.0)
           (-30.0 30.0)
           (-30.0 30.0)
  end
  begin
     id 12 
     name upperback
     direction 0.0422361 0.998867 -0.0219156   
     length 1.97558   
     axis 0 0 0   XYZ
    dof rx ry rz
    limits (-20.0 45.0)
           (-30.0 30.0)
           (-30.0 30.0)
  end
  begin
     id 13 
     name thorax
     direction 0.0442465 0.999021 7.47603e-005   
     length 1.97799   
     axis 0 0 0   XYZ
    dof rx ry rz
    limits (-20.0 45.0)
           (-30.0 30.0)
           (-30.0 30.0)
  end
  begin
     id 14 
     name lowerneck
     direction 0.00312169 0.984641 0.174564   
     length 1.78995   
     axis 0 0 0   XYZ
    dof rx ry rz
    limits (-20.0 45.0)
           (-30.0 30.0)
           (-30.0 30.0)
  end
  begin
     id 15 
     name upperneck
     direction -0.0383028 0.985255 -0.166749   
     length 1.83053   
     axis 0 0 0   XYZ
    dof rx ry rz
    limits (-20.0 45.0)
           (-30.0 30.0)
           (-30.0 30.0)
  end
  begin
     id 16
     name head
     direction -0.0129546 0.997059 -0.0755386  
     length 1.84088  
     axis 0 0 0   XYZ
    dof rx ry rz
    limits (-20.0 45.0)
           (-30.0 30.0)
           (-30.0 30.0)
  end
  begin
     id 17 
     name lclavicle
     direction 0.912857 0.370519 -0.171488  
     length 3.51279  
     axis 0 0 0   XYZ
    dof ry rz
    limits (-20.0 10.0)
           (0.0 20.0)
  end
  begin
     id 18 
     name lhumerus
     direction 1 -4.48962e-011 3.64361e-027   
     length 4.95663   
     axis 180 -30 -90   XYZ
    dof rx ry rz
    limits (-60.0 90.0)
           (-90.0 90.0)
           (-90.0 90.0)
  end
  begin
     id 19
     name lradius
     direction 1 -4.48974e-011 5.97202e-027   
     length 3.38177   
     axis 180 -30 -90   XYZ
    dof rx
    limits (-10.0 170.0)
  end
  begin
     id 20
     name lwrist
     direction 1 -4.4896e-011 9.83288e-027   
     length 1.69088   
     axis -9.31221e-015 90 90   XYZ
    dof ry
    limits (-180.0 0.0)
 end
  begin
     id 21 
     name lhand
     direction 1 -4.4902e-011 1.96551e-026   
     length 0.662909   
     axis -1.25475e-014 90 90   XYZ
    dof rx rz
    limits (-90.0 90.0)
           (-45.0 45.0)
  end
  begin
     id 22 
     name lfingers
     direction 1 -4.48971e-011 3.93277e-026   
     length 0.534454   
     axis -2.50945e-014 90 90   XYZ
    dof rx
    limits (0.0 90.0)
  end
  begin
     id 23
     name lthumb
     direction 0.707107 -6.34933e-011 0.707107   
     length 0.767373   
     axis -90 45 -4.80359e-014   XYZ
    dof rx rz
    limits (-45.0 45.0)
           (-45.0 45.0)
  end
  begin
     id 24 
     name rclavicle
     direction -0.900919 0.395364 -0.178976   
     length 3.40627  
     axis 0 0 0   XYZ 
    dof ry rz
    limits (-10.0 20.0)
           (-20.0 0.0)
  end
  begin
     id 25 
     name rhumerus
     direction -1 -4.48969e-011 1.03875e-027  
     length 5.08365   
     axis 180 30 90   XYZ
    dof rx ry rz
    limits (-90.0 60.0)
           (-90.0 90.0)
           (-90.0 90.0)
  end
  begin
     id 26 
     name rradius
     direction -1 -4.48951e-011 5.02733e-027   
     length 3.35984   
     axis 180 30 90   XYZ
    dof rx
    limits (-10.0 170.0)
  end
  begin
     id 27 
     name rwrist
     direction -1 -4.49011e-011 9.82828e-027   
     length 1.67992   
     axis -9.31221e-015 -90 -90   XYZ
    dof ry
    limits (-180.0 0.0)
  end
  begin
     id 28
     name rhand
     direction -1 -4.48894e-011 1.96774e-026   
     length 0.820764   
     axis -1.25475e-014 -90 -90   XYZ
    dof rx rz
    limits (-90.0 90.0)
           (-45.0 45.0)
  end
  begin
     id 29
     name rfingers
     direction -1 -4.49095e-011 3.92833e-026   
     length 0.661721   
     axis -2.50945e-014 -90 -90   XYZ
    dof rx
    limits (0.0 90.0)
  end
  begin
     id 30
     name rthumb
     direction -0.707107 -6.34881e-011 0.707107   
     length 0.950103   
     axis -90 -45 4.80359e-014   XYZ
    dof rx rz
    limits (-45.0 45.0)
           (-45.0 45.0)
  end
:hierarchy
  begin
    root lhipjoint rhipjoint lowerback
    lhipjoint lfemur
    lfemur ltibia
    ltibia lfoot
    lfoot ltoes
    rhipjoint rfemur
    rfemur rtibia
    rtibia rfoot
    rfoot rtoes
    lowerback upperback
    upperback thorax
    thorax lowerneck lclavicle rclavicle
    lowerneck upperneck
    upperneck head
    lclavicle lhumerus
    lhumerus lradius
    lradius lwrist
    lwrist lhand lthumb
    lhand lfingers
    rclavicle rhumerus
    rhumerus rradius
    rradius rwrist
    rwrist rhand rthumb
    rhand rfingers
  end

#!OML:ASF I:\golf\golf\golf 2\Subject 1\2002-09-07\Subject1.ASF
:FULLY-SPECIFIED
:DEGREES
67
root -7.22938 17.7816 0.318124 -70.2215 88.7721 -85.1451
lowerback 2.24238 1.78337 -3.79812
upperback 3.3196 2.38343 4.07939
thorax 1.84472 1.10198 6.35467
lowerneck -15.4324 -0.864637 1.24663
upperneck 37.3294 1.75347 -4.70535
head 15.8808 0.753627 -1.802
rclavicle 1.86858e-014 5.725e-014
rhumerus -6.46676 -1.51385 -101.586
rradius 22.4286
rwrist -38.6722
rhand -14.728 -7.02596
rfingers 7.12502
rthumb 11.4271 -36.6946
lclavicle 1.86858e-014 5.725e-014
lhumerus -10.2643 -45.0231 110.523
lradius 26.3634
lwrist 38.0218
lhand -12.2184 68.5013
lfingers 7.12502
lthumb -166.153 81.9796
rfemur -29.3379 -2.04449 10.8718
rtibia 31.2974
rfoot -10.7442 -8.97541
rtoes -7.19773
lfemur -28.2047 5.00028 -11.2216
ltibia 28.2701
lfoot -11.8703 -4.17797
ltoes -19.3653
68
root -7.23006 17.7807 0.3177 -70.3512 88.7527 -85.2779
lowerback 2.22852 1.78602 -3.77248
upperback 3.32115 2.38738 4.06842
thorax 1.85484 1.10422 6.32883
lowerneck -15.4219 -0.866759 1.25014
upperneck 37.3098 1.73355 -4.67469
head 15.8667 0.749469 -1.79244
rclavicle -2.62396e-014 -5.48646e-014
rhumerus -6.52613 -1.13106 -101.64
rradius 22.5217
rwrist -38.7866
rhand -15.0185 -6.86635
rfingers 7.12502
rthumb 11.1469 -36.5503
lclavicle -2.62396e-014 -5.48646e-014
lhumerus -10.1712 -45.1218 110.456
lradius 26.233
lwrist 37.7858
lhand -11.7813 68.4335
lfingers 7.12502
lthumb -165.732 82.0766
rfemur -29.3406 -2.09892 10.9034
rtibia 31.2974
rfoot -10.7874 -8.96961
rtoes -7.25073
lfemur -28.2272 5.04843 -11.2121
ltibia 28.2932
lfoot -11.8623 -4.22864
ltoes -19.0804
69
root -7.23098 17.7803 0.318048 -71.094 88.693 -85.9935
lowerback 2.25801 1.78453 -3.7015
upperback 3.32941 2.38592 4.076
thorax 1.84921 1.10525 6.29529
lowerneck -15.4009 -0.861604 1.25517
upperneck 37.2667 1.73904 -4.68829
head 15.8403 0.749838 -1.79728
rclavicle 7.55382e-015 -3.65764e-014
rhumerus -6.58613 -0.764037 -101.679
rradius 22.6764
rwrist -39.0452
rhand -15.4504 -6.88286
rfingers 7.12502
rthumb 10.7303 -36.5888
lclavicle 7.55382e-015 -3.65764e-014
lhumerus -10.0635 -45.3663 110.345
lradius 26.1584
lwrist 37.7283
lhand -11.3928 68.2554
lfingers 7.12502
lthumb -165.358 82.2816
rfemur -29.3112 -2.07772 10.9627
rtibia 31.3037
rfoot -10.8701 -8.98023
rtoes -7.04433
lfemur -28.2206 5.12523 -11.1578
ltibia 28.3352
lfoot -11.9048 -4.28037
ltoes -19.0815
70
root -7.23156 17.7794 0.318607 -71.6637 88.6737 -86.5366
lowerback 2.27205 1.81812 -3.63352
upperback 3.3448 2.43113 4.0396
thorax 1.8549 1.12924 6.2169
lowerneck -15.4467 -0.88543 1.29369
upperneck 37.308 1.68002 -4.65099
head 15.8688 0.735969 -1.79958
rclavicle -9.93923e-015 1.19271e-014
rhumerus -6.55834 -0.966311 -101.673
rradius 22.8259
rwrist -39.4803
rhand -15.2566 -7.02425
rfingers 7.12502
rthumb 10.9173 -36.7204
lclavicle -9.93923e-015 1.19271e-014
lhumerus -10 -45.8441 110.202
lradius 26.1381
lwrist 37.7972
lhand -10.8782 68.3256
lfingers 7.12502
lthumb -164.862 82.248
rfemur -29.2871 -2.04984 10.974
rtibia 31.3228
rfoot -10.9028 -8.94848
rtoes -6.82747
lfemur -28.2165 5.16428 -11.1409
ltibia 28.3834
lfoot -11.9587 -4.31669
ltoes -19.2322
71
root -7.23276 17.7771 0.318255 -72.4196 88.7015 -87.2795
lowerback 2.28145 1.87068 -3.57203
upperback 3.3429 2.50103 3.96774
thorax 1.84328 1.16621 6.10404
lowerneck -15.4627 -0.9315 1.33156
upperneck 37.3407 1.57271 -4.57516
head 15.8827 0.708002 -1.79299
rclavicle -9.54166e-015 -3.73715e-014
rhumerus -6.50695 -1.31209 -101.731
rradius 22.9005
rwrist -39.522
rhand -15.1026 -7.02873
rfingers 7.12502
rthumb 11.0658 -36.717
lclavicle -9.54166e-015 -3.73715e-014
lhumerus -9.98275 -46.3437 110.103
lradius 26.0834
lwrist 37.534
lhand -10.2048 68.576
lfingers 7.12502
lthumb -164.214 82.0477
rfemur -29.2911 -2.15227 10.9629
rtibia 31.3569
rfoot -10.8696 -8.85152
rtoes -7.00759
lfemur -28.2322 5.20731 -11.1833
ltibia 28.4126
lfoot -11.9904 -4.39727
ltoes -19.115
72
root -7.23539 17.7756 0.318322 -73.2056 88.7574 -88.0157
lowerback 2.36271 1.84512 -3.62911
upperback 3.33205 2.46494 3.98007
thorax 1.78868 1.14863 6.14699
lowerneck -15.3609 -0.910293 1.24752
upperneck 37.2519 1.63921 -4.60947
head 15.8168 0.719465 -1.77834
rclavicle -3.37934e-014 -3.81667e-014
rhumerus -6.58761 -1.12536 -101.77
rradius 23.0068
rwrist -39.4562
rhand -15.3092 -7.01999
rfingers 7.12502
rthumb 10.8665 -36.7188
lclavicle -3.37934e-014 -3.81667e-014
lhumerus -9.79718 -46.3727 110.019
lradius 25.836
lwrist 36.7645
lhand -9.4787 68.9623
lfingers 7.12502
lthumb -163.514 81.7181
rfemur -29.2652 -2.24371 10.9169
rtibia 31.4041
rfoot -10.8719 -8.76701
rtoes -7.06521
lfemur -28.1997 5.26492 -11.2576
ltibia 28.4132
lfoot -11.9969 -4.51703
ltoes -18.9426
73
root -7.23754 17.7744 0.320863 -69.5872 88.828 -84.3089
lowerback 2.48209 1.82276 -3.81008
upperback 3.32808 2.43102 4.01583
thorax 1.71443 1.12992 6.28459
lowerneck -15.2888 -0.862941 1.13472
upperneck 37.2283 1.7665 -4.65121
head 15.7944 0.752346 -1.75267
rclavicle 3.18055e-014 3.33958e-014
rhumerus -6.8088 -0.384428 -101.762
rradius 23.2329
rwrist -39.4888
rhand -16.02 -7.06502
rfingers 7.12502
rthumb 10.1809 -36.7987
lclavicle 3.18055e-014 3.33958e-014
lhumerus -9.58796 -46.3358 109.951
lradius 25.4635
lwrist 36.1567
lhand -8.29539 69.1648
lfingers 7.12502
lthumb -162.375 81.614
rfemur -29.2149 -2.17338 10.8101
rtibia 31.4539
rfoot -10.9667 -8.69931
rtoes -6.75529
lfemur -28.0837 5.33241 -11.3449
ltibia 28.4005
lfoot -12.0147 -4.54656
ltoes -19.0817
